===========================================================================

                              HD DESI ROCKERS RELEASES 

===========================================================================

General
Complete name                   : Bee.Movie.Bluray.720p.Hindi.Dj.Vikas.mkv 

Format                           : Matroska
File size                        : 2.05 GiB
Duration                         : 1h 26mn
Overall bit rate                 : 3 381 Kbps

Video
ID                               : 1
Format                           : AVC
Format/Info                      : Advanced Video Codec
Codec ID                         : V_MPEG4/ISO/AVC
Duration                         : 1h 23mn
Bit rate                         : 2 865 Kbps
Width                            : 1 280 pixels
Height                           : 720 pixels
Display aspect ratio             : 16:9
Frame rate mode                  : Constant
Frame rate                       : 25 fps
Stream size                      : 1.67 GiB (81%)


Audio
ID                               : 2
Format                           : AC-3
Format/Info                      : Audio Coding 3
Codec ID                         : A_AC3
Duration                         : 1h 26mn
Bit rate mode                    : Constant
Bit rate                         : 448 Kbps
Channel(s)                       : 2 channels
Channel positions                : L R
Sampling rate                    : 48.0 KHz
Stream size                      : 279 MiB (13%)
Title                            : Hindi - By - DJ Vikas
__________________________________________________________________________________________________________________________________________________________
screen shots 
__________________________________________________________________________________________________________________________________________________________________
http://img9.imageshack.us/img9/91/15880378.png
http://img687.imageshack.us/img687/170/beemoviebluray720phindi.jpg
http://img514.imageshack.us/img514/170/beemoviebluray720phindi.jpg
http://img25.imageshack.us/img25/170/beemoviebluray720phindi.jpg
http://img294.imageshack.us/img294/170/beemoviebluray720phindi.jpg
http://img199.imageshack.us/img199/170/beemoviebluray720phindi.jpg
http://img413.imageshack.us/img413/170/beemoviebluray720phindi.jpg
http://img64.imageshack.us/img64/170/beemoviebluray720phindi.jpg
http://img23.imageshack.us/img23/170/beemoviebluray720phindi.jpg
http://img228.imageshack.us/img228/170/beemoviebluray720phindi.jpg
http://img155.imageshack.us/img155/170/beemoviebluray720phindi.jpg
http://img200.imageshack.us/img200/170/beemoviebluray720phindi.jpg
http://img33.imageshack.us/img33/170/beemoviebluray720phindi.jpg
http://img215.imageshack.us/img215/170/beemoviebluray720phindi.jpg
______________________________________________________________________________________________________________________________________________________


ORKUT COMMUNITY :

WEBSITE :

FORLINKS & SAMPLE DOWNLOAD